<svg width="128" height="128" viewBox="0 0 128 128" fill="none" xmlns="http://www.w3.org/2000/svg">
<rect width="128" height="128" fill="#E9E9E9"/>
<path d="M84.0455 77.9625L96.7855 85.483L93.4445 90.912L77.3636 81.3V59.05H84.0455V77.9625ZM113 76.85C113 94.0715 99.0573 108 81.8182 108C71.2164 108 61.9064 102.704 56.2491 94.65H28.3636V59.05H15L59.5455 19L90.7273 46.9905C103.601 50.8175 113 62.7435 113 76.85ZM51.9282 85.75C51.1264 82.9465 50.6364 79.965 50.6364 76.85C50.6364 61.453 61.7727 48.726 76.4727 46.1895L59.5455 30.9705L37.2727 50.9955V85.75H51.9282ZM104.091 76.85C104.091 64.568 94.1127 54.6 81.8182 54.6C69.5236 54.6 59.5455 64.568 59.5455 76.85C59.5455 89.132 69.5236 99.1 81.8182 99.1C94.1127 99.1 104.091 89.132 104.091 76.85Z" fill="black"/>
</svg>
